<svg width="680" height="340" viewBox="0 0 680 340" role="img" xmlns="http://www.w3.org/2000/svg">
<title>ExtraCart logo</title>
<desc>Logo ExtraCart — símbolo hexagonal registral com E central, EXTRACART em branco e dourado</desc>

<defs>
  <radialGradient id="glow" cx="50%" cy="50%" r="50%">
    <stop offset="0%" stop-color="#ffffff" stop-opacity="1"/>
    <stop offset="60%" stop-color="#dce8ff" stop-opacity="0.9"/>
    <stop offset="100%" stop-color="#a0c0ff" stop-opacity="0.6"/>
  </radialGradient>
  <linearGradient id="gold" x1="0%" y1="0%" x2="100%" y2="100%">
    <stop offset="0%" stop-color="#e8c96a"/>
    <stop offset="50%" stop-color="#c9a84c"/>
    <stop offset="100%" stop-color="#a07830"/>
  </linearGradient>
</defs>

<rect width="680" height="340" fill="#09152a" rx="20"/>

<circle cx="340" cy="118" r="72" fill="none" stroke="#1e3a6a" stroke-width="1" stroke-dasharray="5 4"/>
<polygon points="340,52 402,86 402,150 340,184 278,150 278,86" fill="none" stroke="url(#gold)" stroke-width="1.5" opacity="0.7"/>
<circle cx="340" cy="52"  r="3" fill="#c9a84c"/>
<circle cx="402" cy="86"  r="3" fill="#c9a84c"/>
<circle cx="402" cy="150" r="3" fill="#c9a84c"/>
<circle cx="340" cy="184" r="3" fill="#c9a84c"/>
<circle cx="278" cy="150" r="3" fill="#c9a84c"/>
<circle cx="278" cy="86"  r="3" fill="#c9a84c"/>
<g stroke="#1e3a6a" stroke-width="0.7" opacity="0.6">
  <line x1="340" y1="52"  x2="340" y2="118"/>
  <line x1="402" y1="86"  x2="340" y2="118"/>
  <line x1="402" y1="150" x2="340" y2="118"/>
  <line x1="340" y1="184" x2="340" y2="118"/>
  <line x1="278" y1="150" x2="340" y2="118"/>
  <line x1="278" y1="86"  x2="340" y2="118"/>
</g>
<polygon points="340,76 372,94 372,142 340,160 308,142 308,94" fill="#0d1f3e" stroke="#2a4f8f" stroke-width="1"/>
<rect x="320" y="90" width="4" height="56" rx="2" fill="url(#glow)"/>
<rect x="320" y="90" width="26" height="4" rx="2" fill="url(#glow)"/>
<rect x="320" y="116" width="22" height="4" rx="2" fill="url(#gold)"/>
<rect x="320" y="142" width="26" height="4" rx="2" fill="url(#glow)"/>
<circle cx="354" cy="118" r="5" fill="#c9a84c" opacity="0.9"/>
<circle cx="354" cy="118" r="9" fill="#c9a84c" opacity="0.15"/>

<text x="184" y="258" font-family="Inter, Arial, sans-serif" font-weight="900" font-size="68" fill="#f0f6ff" letter-spacing="-3">EXTRA</text>
<text x="452" y="258" font-family="Inter, Arial, sans-serif" font-weight="200" font-size="68" fill="url(#gold)" letter-spacing="-3">CART</text>
<line x1="150" y1="272" x2="530" y2="272" stroke="#1e3a6a" stroke-width="0.7"/>
<text x="340" y="295" font-family="Inter, Arial, sans-serif" font-weight="300" font-size="11" fill="#3a5c96" text-anchor="middle" letter-spacing="4.5">GESTÃO DE PROCESSOS EXTRAJUDICIAIS</text>
</svg>
