<svg width="200" height="200" viewBox="0 0 200 200" role="img" xmlns="http://www.w3.org/2000/svg">
<title>ExtraCart ícone</title>
<defs>
  <radialGradient id="glow2" cx="50%" cy="50%" r="50%">
    <stop offset="0%" stop-color="#ffffff"/>
    <stop offset="60%" stop-color="#dce8ff" stop-opacity="0.9"/>
    <stop offset="100%" stop-color="#a0c0ff" stop-opacity="0.6"/>
  </radialGradient>
  <linearGradient id="gold2" x1="0%" y1="0%" x2="100%" y2="100%">
    <stop offset="0%" stop-color="#e8c96a"/>
    <stop offset="50%" stop-color="#c9a84c"/>
    <stop offset="100%" stop-color="#a07830"/>
  </linearGradient>
</defs>
<rect width="200" height="200" fill="#09152a" rx="40"/>
<circle cx="100" cy="100" r="72" fill="none" stroke="#1e3a6a" stroke-width="1" stroke-dasharray="5 4"/>
<polygon points="100,34 162,68 162,132 100,166 38,132 38,68" fill="none" stroke="url(#gold2)" stroke-width="1.5" opacity="0.7"/>
<circle cx="100" cy="34"  r="3" fill="#c9a84c"/>
<circle cx="162" cy="68"  r="3" fill="#c9a84c"/>
<circle cx="162" cy="132" r="3" fill="#c9a84c"/>
<circle cx="100" cy="166" r="3" fill="#c9a84c"/>
<circle cx="38"  cy="132" r="3" fill="#c9a84c"/>
<circle cx="38"  cy="68"  r="3" fill="#c9a84c"/>
<g stroke="#1e3a6a" stroke-width="0.7" opacity="0.6">
  <line x1="100" y1="34"  x2="100" y2="100"/>
  <line x1="162" y1="68"  x2="100" y2="100"/>
  <line x1="162" y1="132" x2="100" y2="100"/>
  <line x1="100" y1="166" x2="100" y2="100"/>
  <line x1="38"  y1="132" x2="100" y2="100"/>
  <line x1="38"  y1="68"  x2="100" y2="100"/>
</g>
<polygon points="100,58 132,76 132,124 100,142 68,124 68,76" fill="#0d1f3e" stroke="#2a4f8f" stroke-width="1"/>
<rect x="80" y="72" width="4" height="56" rx="2" fill="url(#glow2)"/>
<rect x="80" y="72" width="26" height="4" rx="2" fill="url(#glow2)"/>
<rect x="80" y="98" width="22" height="4" rx="2" fill="url(#gold2)"/>
<rect x="80" y="124" width="26" height="4" rx="2" fill="url(#glow2)"/>
<circle cx="114" cy="100" r="5" fill="#c9a84c" opacity="0.9"/>
<circle cx="114" cy="100" r="9" fill="#c9a84c" opacity="0.15"/>
</svg>
